<svg id="svg" version="1.1" width="400" height="400" viewBox="0 0 400 400" xmlns="http://www.w3.org/2000/svg" xmlns:xlink="http://www.w3.org/1999/xlink"><g id="svgg"><path id="path0" d="M66.100 0.293 C 64.725 0.373,63.600 0.610,63.600 0.819 C 63.600 1.029,62.880 1.200,62.000 1.200 C 61.120 1.200,60.400 1.380,60.400 1.600 C 60.400 1.820,59.770 2.000,59.000 2.000 C 58.230 2.000,57.600 2.180,57.600 2.400 C 57.600 2.620,57.071 2.800,56.424 2.800 C 55.777 2.800,55.136 2.980,55.000 3.200 C 54.864 3.420,54.313 3.600,53.776 3.600 C 53.239 3.600,52.800 3.780,52.800 4.000 C 52.800 4.220,52.260 4.400,51.600 4.400 C 50.940 4.400,50.400 4.580,50.400 4.800 C 50.400 5.020,49.950 5.200,49.400 5.200 C 48.850 5.200,48.400 5.380,48.400 5.600 C 48.400 5.820,47.950 6.000,47.400 6.000 C 46.850 6.000,46.400 6.180,46.400 6.400 C 46.400 6.620,46.040 6.800,45.600 6.800 C 45.160 6.800,44.800 6.980,44.800 7.200 C 44.800 7.420,44.455 7.600,44.033 7.600 C 43.612 7.600,43.207 7.735,43.133 7.900 C 43.060 8.065,41.878 8.740,40.507 9.400 C 39.135 10.060,38.010 10.735,38.007 10.900 C 38.003 11.065,37.680 11.200,37.288 11.200 C 36.897 11.200,36.317 11.560,36.000 12.000 C 35.683 12.440,35.143 12.800,34.800 12.800 C 34.457 12.800,33.917 13.160,33.600 13.600 C 33.283 14.040,32.820 14.400,32.571 14.400 C 32.322 14.400,31.554 14.940,30.863 15.600 C 30.172 16.260,29.518 16.800,29.408 16.800 C 29.071 16.800,27.534 18.132,26.236 19.549 C 24.650 21.281,21.281 24.650,19.549 26.236 C 18.132 27.534,16.800 29.071,16.800 29.408 C 16.800 29.518,16.260 30.172,15.600 30.863 C 14.940 31.554,14.400 32.322,14.400 32.571 C 14.400 32.820,14.040 33.283,13.600 33.600 C 13.160 33.917,12.800 34.457,12.800 34.800 C 12.800 35.143,12.440 35.683,12.000 36.000 C 11.560 36.317,11.200 36.897,11.200 37.288 C 11.200 37.680,11.053 38.000,10.874 38.000 C 10.694 38.000,10.019 39.125,9.374 40.500 C 8.728 41.875,8.065 43.060,7.900 43.133 C 7.735 43.207,7.600 43.612,7.600 44.033 C 7.600 44.455,7.420 44.800,7.200 44.800 C 6.980 44.800,6.800 45.160,6.800 45.600 C 6.800 46.040,6.620 46.400,6.400 46.400 C 6.180 46.400,6.000 46.749,6.000 47.176 C 6.000 47.603,5.820 48.064,5.600 48.200 C 5.380 48.336,5.200 48.887,5.200 49.424 C 5.200 49.961,5.020 50.400,4.800 50.400 C 4.580 50.400,4.400 50.940,4.400 51.600 C 4.400 52.260,4.220 52.800,4.000 52.800 C 3.780 52.800,3.600 53.239,3.600 53.776 C 3.600 54.313,3.420 54.864,3.200 55.000 C 2.980 55.136,2.800 55.777,2.800 56.424 C 2.800 57.071,2.620 57.600,2.400 57.600 C 2.180 57.600,2.000 58.230,2.000 59.000 C 2.000 59.770,1.820 60.400,1.600 60.400 C 1.380 60.400,1.200 61.105,1.200 61.967 C 1.200 62.864,0.987 63.604,0.700 63.700 C -0.036 63.945,-0.036 269.255,0.700 269.500 C 0.985 269.595,1.200 270.331,1.200 271.210 C 1.200 272.058,1.380 272.864,1.600 273.000 C 1.820 273.136,2.000 273.867,2.000 274.624 C 2.000 275.381,2.180 276.000,2.400 276.000 C 2.620 276.000,2.800 276.540,2.800 277.200 C 2.800 277.860,2.980 278.400,3.200 278.400 C 3.420 278.400,3.600 278.940,3.600 279.600 C 3.600 280.260,3.780 280.800,4.000 280.800 C 4.220 280.800,4.400 281.340,4.400 282.000 C 4.400 282.660,4.580 283.200,4.800 283.200 C 5.020 283.200,5.200 283.560,5.200 284.000 C 5.200 284.440,5.380 284.800,5.600 284.800 C 5.820 284.800,6.000 285.072,6.000 285.405 C 6.000 285.738,6.168 286.323,6.374 286.705 C 6.579 287.087,6.983 287.985,7.271 288.700 C 7.560 289.415,7.931 290.000,8.098 290.000 C 8.264 290.000,8.400 290.287,8.400 290.638 C 8.400 291.344,9.627 293.723,10.100 293.933 C 10.265 294.007,10.400 294.412,10.400 294.833 C 10.400 295.255,10.550 295.600,10.732 295.600 C 10.915 295.600,11.320 296.095,11.632 296.700 C 11.945 297.305,12.515 298.149,12.900 298.575 C 13.285 299.002,13.600 299.547,13.600 299.787 C 13.600 300.027,13.960 300.483,14.400 300.800 C 14.840 301.117,15.200 301.585,15.200 301.840 C 15.200 302.095,15.920 303.045,16.800 303.952 C 17.680 304.859,18.400 305.696,18.400 305.813 C 18.400 306.456,31.107 318.400,31.790 318.400 C 32.028 318.400,32.483 318.760,32.800 319.200 C 33.117 319.640,33.657 320.000,34.000 320.000 C 34.343 320.000,34.883 320.360,35.200 320.800 C 35.517 321.240,36.097 321.600,36.488 321.600 C 36.880 321.600,37.200 321.747,37.200 321.927 C 37.200 322.339,42.636 325.200,43.420 325.200 C 43.739 325.200,44.000 325.380,44.000 325.600 C 44.000 325.820,44.360 326.000,44.800 326.000 C 45.240 326.000,45.600 326.180,45.600 326.400 C 45.600 326.620,45.960 326.800,46.400 326.800 C 46.840 326.800,47.200 326.980,47.200 327.200 C 47.200 327.420,47.560 327.600,48.000 327.600 C 48.440 327.600,48.800 327.780,48.800 328.000 C 48.800 328.220,49.340 328.400,50.000 328.400 C 50.660 328.400,51.200 328.580,51.200 328.800 C 51.200 329.020,51.740 329.200,52.400 329.200 C 53.060 329.200,53.600 329.380,53.600 329.600 C 53.600 329.820,54.039 330.000,54.576 330.000 C 55.113 330.000,55.664 330.180,55.800 330.400 C 55.936 330.620,56.577 330.800,57.224 330.800 C 57.871 330.800,58.400 330.980,58.400 331.200 C 58.400 331.420,59.019 331.600,59.776 331.600 C 60.533 331.600,61.264 331.780,61.400 332.000 C 61.536 332.220,62.447 332.400,63.424 332.400 C 64.401 332.400,65.200 332.580,65.200 332.800 C 65.200 333.029,66.400 333.200,68.000 333.200 C 69.600 333.200,70.800 333.371,70.800 333.600 C 70.800 333.866,103.785 334.000,168.954 334.000 L 267.108 334.000 267.795 335.048 C 268.173 335.625,269.588 337.221,270.941 338.597 C 272.293 339.972,273.940 341.766,274.600 342.584 C 275.260 343.402,276.702 345.000,277.805 346.136 C 278.907 347.271,280.256 348.830,280.801 349.600 C 281.346 350.370,283.054 352.294,284.596 353.875 C 287.182 356.527,291.648 361.338,292.606 362.506 C 292.829 362.778,293.638 363.810,294.405 364.800 C 295.171 365.790,297.013 367.806,298.499 369.281 C 299.985 370.755,301.200 372.068,301.200 372.198 C 301.200 372.328,302.640 373.859,304.400 375.600 C 306.160 377.341,307.600 378.908,307.600 379.083 C 307.601 379.655,313.005 385.742,317.900 390.684 C 319.495 392.295,320.800 393.761,320.800 393.943 C 320.800 394.406,324.241 398.000,324.685 398.000 C 324.885 398.000,325.484 398.405,326.015 398.900 C 327.558 400.338,338.724 400.275,340.800 398.816 C 342.677 397.496,345.600 394.403,345.600 393.736 C 345.600 393.441,345.780 393.200,346.000 393.200 C 346.220 393.200,346.400 392.660,346.400 392.000 C 346.400 391.340,346.580 390.800,346.800 390.800 C 347.043 390.800,347.200 389.000,347.200 386.200 C 347.200 383.400,347.043 381.600,346.800 381.600 C 346.578 381.600,346.400 380.533,346.400 379.200 C 346.400 377.867,346.222 376.800,346.000 376.800 C 345.778 376.800,345.600 375.741,345.600 374.424 C 345.600 373.117,345.420 371.936,345.200 371.800 C 344.980 371.664,344.800 370.483,344.800 369.176 C 344.800 367.859,344.622 366.800,344.400 366.800 C 344.178 366.800,344.000 365.733,344.000 364.400 C 344.000 363.067,343.822 362.000,343.600 362.000 C 343.380 362.000,343.200 361.010,343.200 359.800 C 343.200 358.590,343.020 357.600,342.800 357.600 C 342.575 357.600,342.400 356.489,342.400 355.067 C 342.400 353.673,342.265 352.400,342.100 352.236 C 341.835 351.974,341.219 347.426,340.551 340.800 C 340.429 339.590,340.165 338.429,339.965 338.220 C 339.764 338.011,339.600 336.796,339.600 335.520 C 339.600 334.240,339.421 333.200,339.200 333.200 C 338.980 333.200,338.801 332.885,338.803 332.500 C 338.807 331.675,340.494 330.800,342.080 330.800 C 342.696 330.800,343.200 330.620,343.200 330.400 C 343.200 330.180,343.740 330.000,344.400 330.000 C 345.060 330.000,345.600 329.820,345.600 329.600 C 345.600 329.380,346.140 329.200,346.800 329.200 C 347.460 329.200,348.000 329.020,348.000 328.800 C 348.000 328.580,348.360 328.400,348.800 328.400 C 349.240 328.400,349.600 328.220,349.600 328.000 C 349.600 327.780,350.140 327.600,350.800 327.600 C 351.460 327.600,352.000 327.420,352.000 327.200 C 352.000 326.980,352.360 326.800,352.800 326.800 C 353.240 326.800,353.600 326.620,353.600 326.400 C 353.600 326.180,353.960 326.000,354.400 326.000 C 354.840 326.000,355.200 325.820,355.200 325.600 C 355.200 325.380,355.453 325.200,355.762 325.200 C 356.070 325.200,357.438 324.570,358.800 323.800 C 360.162 323.030,361.440 322.400,361.638 322.400 C 361.837 322.400,362.000 322.220,362.000 322.000 C 362.000 321.780,362.236 321.600,362.525 321.600 C 362.813 321.600,363.436 321.240,363.908 320.800 C 364.380 320.360,364.909 320.000,365.083 319.999 C 365.257 319.999,366.030 319.459,366.800 318.800 C 367.570 318.141,368.353 317.601,368.540 317.601 C 368.726 317.600,369.383 317.060,370.000 316.400 C 370.617 315.740,371.245 315.200,371.396 315.200 C 371.729 315.200,381.600 305.368,381.600 305.036 C 381.600 304.907,382.320 304.059,383.200 303.152 C 384.080 302.245,384.800 301.321,384.800 301.099 C 384.800 300.876,385.116 300.403,385.503 300.047 C 385.889 299.691,386.460 298.905,386.770 298.300 C 387.081 297.695,387.485 297.200,387.668 297.200 C 387.850 297.200,388.000 296.922,388.000 296.583 C 388.000 296.244,388.360 295.580,388.800 295.108 C 389.240 294.636,389.600 294.013,389.600 293.725 C 389.600 293.436,389.780 293.200,390.000 293.200 C 390.220 293.200,390.400 292.840,390.400 292.400 C 390.400 291.960,390.566 291.600,390.768 291.600 C 390.971 291.600,391.255 291.060,391.400 290.400 C 391.545 289.740,391.829 289.200,392.032 289.200 C 392.234 289.200,392.400 288.840,392.400 288.400 C 392.400 287.960,392.580 287.600,392.800 287.600 C 393.020 287.600,393.200 287.150,393.200 286.600 C 393.200 286.050,393.380 285.600,393.600 285.600 C 393.820 285.600,394.000 285.240,394.000 284.800 C 394.000 284.360,394.180 284.000,394.400 284.000 C 394.620 284.000,394.800 283.561,394.800 283.024 C 394.800 282.487,394.980 281.936,395.200 281.800 C 395.420 281.664,395.600 281.203,395.600 280.776 C 395.600 280.349,395.780 280.000,396.000 280.000 C 396.220 280.000,396.400 279.460,396.400 278.800 C 396.400 278.140,396.580 277.600,396.800 277.600 C 397.020 277.600,397.200 277.071,397.200 276.424 C 397.200 275.777,397.380 275.136,397.600 275.000 C 397.820 274.864,398.000 274.234,398.000 273.600 C 398.000 272.966,398.180 272.336,398.400 272.200 C 398.620 272.064,398.800 271.168,398.800 270.210 C 398.800 269.171,399.002 268.399,399.300 268.300 C 400.035 268.055,400.035 64.675,399.300 63.940 C 399.025 63.665,398.800 62.756,398.800 61.920 C 398.800 61.084,398.620 60.400,398.400 60.400 C 398.180 60.400,398.000 59.770,398.000 59.000 C 398.000 58.230,397.820 57.600,397.600 57.600 C 397.380 57.600,397.200 57.071,397.200 56.424 C 397.200 55.777,397.020 55.136,396.800 55.000 C 396.580 54.864,396.400 54.313,396.400 53.776 C 396.400 53.239,396.220 52.800,396.000 52.800 C 395.780 52.800,395.600 52.260,395.600 51.600 C 395.600 50.940,395.420 50.400,395.200 50.400 C 394.980 50.400,394.800 49.961,394.800 49.424 C 394.800 48.887,394.620 48.336,394.400 48.200 C 394.180 48.064,394.000 47.603,394.000 47.176 C 394.000 46.749,393.820 46.400,393.600 46.400 C 393.380 46.400,393.200 46.040,393.200 45.600 C 393.200 45.160,393.020 44.800,392.800 44.800 C 392.580 44.800,392.400 44.455,392.400 44.033 C 392.400 43.612,392.265 43.207,392.100 43.133 C 391.935 43.060,391.260 41.878,390.600 40.507 C 389.940 39.135,389.265 38.010,389.100 38.007 C 388.935 38.003,388.800 37.680,388.800 37.288 C 388.800 36.897,388.440 36.317,388.000 36.000 C 387.560 35.683,387.200 35.143,387.200 34.800 C 387.200 34.457,386.840 33.917,386.400 33.600 C 385.960 33.283,385.600 32.820,385.600 32.571 C 385.600 32.322,385.060 31.554,384.400 30.863 C 383.740 30.172,383.200 29.518,383.200 29.408 C 383.200 29.071,381.868 27.534,380.451 26.236 C 378.719 24.650,375.350 21.281,373.764 19.549 C 372.466 18.132,370.929 16.800,370.592 16.800 C 370.482 16.800,369.828 16.260,369.137 15.600 C 368.446 14.940,367.678 14.400,367.429 14.400 C 367.180 14.400,366.717 14.040,366.400 13.600 C 366.083 13.160,365.543 12.800,365.200 12.800 C 364.857 12.800,364.317 12.440,364.000 12.000 C 363.683 11.560,363.103 11.200,362.712 11.200 C 362.320 11.200,362.000 11.053,362.000 10.874 C 362.000 10.694,360.875 10.019,359.500 9.374 C 358.125 8.728,356.940 8.065,356.867 7.900 C 356.793 7.735,356.388 7.600,355.967 7.600 C 355.545 7.600,355.200 7.420,355.200 7.200 C 355.200 6.980,354.840 6.800,354.400 6.800 C 353.960 6.800,353.600 6.620,353.600 6.400 C 353.600 6.180,353.251 6.000,352.824 6.000 C 352.397 6.000,351.936 5.820,351.800 5.600 C 351.664 5.380,351.113 5.200,350.576 5.200 C 350.039 5.200,349.600 5.020,349.600 4.800 C 349.600 4.580,349.161 4.400,348.624 4.400 C 348.087 4.400,347.536 4.220,347.400 4.000 C 347.264 3.780,346.724 3.600,346.200 3.600 C 345.676 3.600,345.136 3.420,345.000 3.200 C 344.864 2.980,344.223 2.800,343.576 2.800 C 342.929 2.800,342.400 2.620,342.400 2.400 C 342.400 2.180,341.770 2.000,341.000 2.000 C 340.230 2.000,339.600 1.820,339.600 1.600 C 339.600 1.380,338.916 1.200,338.080 1.200 C 337.244 1.200,336.335 0.975,336.060 0.700 C 335.594 0.234,73.911 -0.161,66.100 0.293 M328.633 13.618 C 334.215 14.604,335.666 14.954,340.548 16.488 C 347.617 18.709,357.219 23.785,360.991 27.293 C 361.930 28.166,363.721 26.346,330.983 57.788 C 325.492 63.062,318.390 69.906,315.200 72.998 C 312.010 76.090,307.240 80.699,304.600 83.241 C 301.960 85.782,297.280 90.295,294.200 93.270 C 291.120 96.245,286.458 100.732,283.840 103.240 C 275.792 110.951,259.547 126.592,249.815 136.000 C 246.287 139.410,241.241 144.278,238.601 146.817 C 235.960 149.356,231.190 153.972,228.000 157.075 C 220.418 164.449,217.035 167.567,215.435 168.654 C 205.892 175.138,194.108 175.138,184.565 168.654 C 182.978 167.575,179.596 164.462,172.186 157.258 C 169.098 154.256,164.508 149.820,161.986 147.400 C 159.463 144.980,154.330 140.030,150.579 136.400 C 140.191 126.347,124.518 111.248,116.160 103.240 C 113.542 100.732,108.880 96.244,105.800 93.267 C 102.720 90.289,98.040 85.782,95.400 83.249 C 92.760 80.717,88.170 76.289,85.200 73.410 C 79.525 67.909,62.257 51.280,54.452 43.800 C 35.946 26.066,37.273 28.259,42.800 24.537 C 51.273 18.830,59.027 15.839,71.000 13.659 C 73.941 13.123,325.608 13.084,328.633 13.618 M32.809 40.845 C 40.752 48.448,44.370 51.932,54.034 61.287 C 59.651 66.725,64.666 71.537,65.178 71.981 C 66.063 72.749,80.145 86.312,92.200 98.010 C 95.280 100.998,100.139 105.683,102.997 108.422 C 108.530 113.721,117.076 121.969,120.796 125.600 C 122.035 126.810,124.658 129.331,126.625 131.202 C 134.155 138.368,152.443 156.024,157.800 161.300 L 163.400 166.815 161.200 168.887 C 158.642 171.296,150.522 179.099,142.796 186.572 C 134.727 194.377,116.328 212.091,112.026 216.198 C 109.950 218.179,107.237 220.790,105.997 222.000 C 102.758 225.161,95.706 231.958,83.800 243.392 C 78.080 248.885,70.892 255.814,67.826 258.790 C 64.761 261.765,62.038 264.380,61.777 264.600 C 61.515 264.820,58.892 267.340,55.947 270.200 C 38.660 286.989,29.851 295.440,29.327 295.739 C 28.678 296.109,28.055 295.569,26.400 293.200 C 25.862 292.430,25.102 291.451,24.711 291.025 C 24.320 290.598,24.000 290.111,24.000 289.942 C 24.000 289.774,23.533 288.953,22.961 288.118 C 20.850 285.032,17.938 278.675,16.220 273.400 C 15.390 270.851,14.495 266.878,13.613 261.833 C 13.035 258.523,13.040 74.641,13.618 71.367 C 15.338 61.635,17.420 55.173,20.888 48.800 C 22.637 45.588,26.096 40.297,27.279 39.025 C 27.675 38.598,28.000 38.103,28.000 37.925 C 28.000 36.885,29.837 38.000,32.809 40.845 M372.000 37.925 C 372.000 38.103,372.354 38.630,372.788 39.095 C 378.713 45.455,384.377 59.018,386.380 71.646 C 386.971 75.371,386.965 258.013,386.374 261.376 C 385.262 267.697,384.928 269.057,383.116 274.600 C 380.419 282.851,372.065 296.358,370.284 295.346 C 369.949 295.156,365.115 290.590,359.542 285.200 C 353.969 279.810,347.166 273.240,344.424 270.600 C 332.050 258.685,327.033 253.847,322.025 249.001 C 313.983 241.219,314.068 241.301,309.577 236.993 C 307.280 234.789,300.630 228.369,294.800 222.726 C 288.970 217.083,283.797 212.117,283.306 211.691 C 282.454 210.953,268.239 197.266,256.200 185.592 C 246.566 176.250,240.268 170.194,238.400 168.475 L 236.600 166.818 242.000 161.502 C 246.877 156.701,262.652 141.484,272.374 132.203 C 274.450 130.221,277.164 127.610,278.404 126.400 C 282.742 122.166,291.044 114.157,296.200 109.232 C 299.060 106.500,303.920 101.820,307.000 98.832 C 310.080 95.844,315.300 90.802,318.600 87.627 C 321.900 84.452,326.850 79.681,329.600 77.025 C 332.350 74.368,339.460 67.518,345.400 61.802 C 351.340 56.086,358.000 49.676,360.200 47.558 C 369.272 38.822,370.631 37.604,371.300 37.602 C 371.685 37.601,372.000 37.746,372.000 37.925 M174.873 177.403 C 175.684 178.172,176.511 178.800,176.711 178.800 C 176.912 178.800,177.382 179.138,177.755 179.550 C 182.106 184.358,199.521 187.832,208.400 185.662 C 213.513 184.413,221.118 180.976,223.481 178.847 C 227.434 175.285,226.823 175.194,231.890 180.100 C 234.218 182.355,236.696 184.740,237.395 185.400 C 238.095 186.060,241.083 188.940,244.035 191.800 C 246.987 194.660,251.970 199.472,255.109 202.493 C 258.247 205.514,263.288 210.374,266.311 213.293 C 271.537 218.339,286.457 232.700,296.342 242.200 C 298.860 244.620,301.944 247.590,303.195 248.800 C 304.446 250.010,309.774 255.139,315.035 260.198 C 320.296 265.258,327.298 272.008,330.596 275.198 C 333.894 278.389,338.754 283.078,341.396 285.617 C 344.038 288.156,348.810 292.772,352.000 295.875 C 355.190 298.977,358.389 302.004,359.109 302.601 C 361.494 304.578,361.476 304.933,358.899 306.887 C 352.992 311.365,344.630 315.416,336.800 317.593 C 325.513 320.731,323.484 325.451,326.307 342.000 C 327.533 349.184,328.054 352.381,330.189 365.800 C 330.749 369.320,331.383 373.190,331.597 374.400 C 331.812 375.610,332.269 378.400,332.614 380.600 C 332.959 382.800,333.334 384.915,333.448 385.300 C 333.808 386.524,332.554 386.082,331.177 384.500 C 330.011 383.162,324.842 377.381,323.792 376.242 C 323.568 375.999,321.048 373.190,318.193 370.000 C 315.337 366.810,312.821 364.000,312.600 363.756 C 312.380 363.511,311.567 362.611,310.794 361.756 C 310.021 360.900,307.054 357.590,304.202 354.400 C 301.349 351.210,298.832 348.400,298.608 348.156 C 298.183 347.693,297.620 347.065,292.000 340.794 C 290.130 338.707,287.772 336.100,286.760 335.000 C 285.747 333.900,284.217 332.191,283.359 331.202 C 277.450 324.389,275.512 322.569,272.888 321.367 L 270.776 320.400 174.565 320.400 C 80.210 320.400,74.724 320.335,68.400 319.148 C 59.254 317.431,50.212 313.784,42.883 308.856 C 37.921 305.519,37.871 305.381,40.708 302.793 C 41.969 301.643,45.430 298.348,48.400 295.470 C 51.370 292.593,56.140 287.979,59.000 285.217 C 61.860 282.455,67.088 277.406,70.617 273.997 C 76.225 268.580,91.781 253.606,97.207 248.400 C 98.239 247.410,101.142 244.620,103.657 242.200 C 106.173 239.780,112.723 233.480,118.213 228.200 C 123.703 222.920,130.985 215.900,134.394 212.600 C 137.804 209.300,142.932 204.350,145.791 201.600 C 148.650 198.850,153.332 194.323,156.195 191.541 C 159.058 188.759,162.210 185.721,163.200 184.791 C 164.190 183.861,166.655 181.503,168.679 179.550 C 172.858 175.517,172.876 175.510,174.873 177.403 " stroke="none" fill="#050404" fill-rule="evenodd"></path><path id="path1" d="M352.191 36.500 L 349.000 39.800 352.300 36.609 C 355.365 33.646,355.782 33.200,355.491 33.200 C 355.430 33.200,353.945 34.685,352.191 36.500 M49.400 38.400 C 50.483 39.500,51.460 40.400,51.570 40.400 C 51.680 40.400,50.883 39.500,49.800 38.400 C 48.717 37.300,47.740 36.400,47.630 36.400 C 47.520 36.400,48.317 37.300,49.400 38.400 M28.203 38.395 C 28.060 38.626,28.230 38.687,28.611 38.540 C 29.056 38.370,29.986 38.976,31.532 40.445 L 33.800 42.600 31.614 40.300 C 29.467 38.042,28.690 37.608,28.203 38.395 M367.244 41.434 C 363.287 45.380,364.024 45.375,368.143 41.428 C 371.337 38.368,371.316 38.374,372.496 40.195 C 372.993 40.962,373.547 41.592,373.727 41.595 C 374.021 41.599,373.476 40.752,371.862 38.700 C 371.050 37.667,370.983 37.707,367.244 41.434 M374.515 42.948 C 374.782 43.523,375.135 43.995,375.300 43.997 C 375.846 44.003,375.612 43.335,374.815 42.613 C 374.047 41.918,374.040 41.926,374.515 42.948 M378.191 49.289 C 379.626 52.088,380.800 54.653,380.800 54.989 C 380.800 55.325,380.980 55.600,381.200 55.600 C 381.420 55.600,381.600 56.039,381.600 56.576 C 381.600 57.113,381.780 57.664,382.000 57.800 C 382.220 57.936,382.400 58.476,382.400 59.000 C 382.400 59.524,382.580 60.064,382.800 60.200 C 383.020 60.336,383.200 60.876,383.200 61.400 C 383.200 61.924,383.380 62.464,383.600 62.600 C 383.820 62.736,384.000 63.456,384.000 64.200 C 384.000 64.944,384.199 65.676,384.443 65.826 C 386.378 67.023,379.220 48.676,376.395 45.200 C 375.948 44.650,376.757 46.490,378.191 49.289 M340.581 47.700 L 339.000 49.400 340.700 47.819 C 342.281 46.348,342.584 46.000,342.281 46.000 C 342.216 46.000,341.451 46.765,340.581 47.700 M60.000 48.525 C 60.000 48.594,60.585 49.179,61.300 49.825 L 62.600 51.000 61.425 49.700 C 60.330 48.488,60.000 48.216,60.000 48.525 M43.000 51.600 C 44.306 52.920,45.465 54.000,45.575 54.000 C 45.685 54.000,44.706 52.920,43.400 51.600 C 42.094 50.280,40.935 49.200,40.825 49.200 C 40.715 49.200,41.694 50.280,43.000 51.600 M356.587 51.700 L 354.200 54.200 356.700 51.813 C 358.075 50.499,359.200 49.374,359.200 49.313 C 359.200 49.017,358.805 49.378,356.587 51.700 M329.956 57.806 C 328.061 59.673,326.625 61.200,326.764 61.200 C 326.904 61.200,328.540 59.670,330.400 57.800 C 332.260 55.930,333.696 54.403,333.591 54.406 C 333.486 54.409,331.850 55.939,329.956 57.806 M71.400 59.600 C 72.483 60.700,73.460 61.600,73.570 61.600 C 73.680 61.600,72.883 60.700,71.800 59.600 C 70.717 58.500,69.740 57.600,69.630 57.600 C 69.520 57.600,70.317 58.500,71.400 59.600 M53.000 61.200 C 54.306 62.520,55.465 63.600,55.575 63.600 C 55.685 63.600,54.706 62.520,53.400 61.200 C 52.094 59.880,50.935 58.800,50.825 58.800 C 50.715 58.800,51.694 59.880,53.000 61.200 M346.587 61.300 L 344.200 63.800 346.700 61.413 C 348.075 60.099,349.200 58.974,349.200 58.913 C 349.200 58.617,348.805 58.978,346.587 61.300 M319.600 67.800 C 317.961 69.450,316.710 70.800,316.820 70.800 C 316.930 70.800,318.361 69.450,320.000 67.800 C 321.639 66.150,322.890 64.800,322.780 64.800 C 322.670 64.800,321.239 66.150,319.600 67.800 M384.800 68.110 C 384.800 69.123,384.994 70.073,385.231 70.219 C 385.530 70.404,385.576 69.892,385.380 68.543 C 385.009 65.990,384.800 65.834,384.800 68.110 M81.983 69.700 C 83.641 71.466,84.000 71.784,84.000 71.483 C 84.000 71.419,83.145 70.564,82.100 69.583 L 80.200 67.800 81.983 69.700 M64.600 72.400 C 65.683 73.500,66.660 74.400,66.770 74.400 C 66.880 74.400,66.083 73.500,65.000 72.400 C 63.917 71.300,62.940 70.400,62.830 70.400 C 62.720 70.400,63.517 71.300,64.600 72.400 M14.109 72.400 C 14.109 73.390,14.187 73.795,14.282 73.300 C 14.378 72.805,14.378 71.995,14.282 71.500 C 14.187 71.005,14.109 71.410,14.109 72.400 M333.787 73.700 L 331.400 76.200 333.900 73.813 C 335.275 72.499,336.400 71.374,336.400 71.313 C 336.400 71.017,336.005 71.378,333.787 73.700 M385.800 166.400 C 385.800 218.650,385.917 260.410,386.060 259.200 C 386.401 256.326,386.401 76.474,386.060 73.600 C 385.917 72.390,385.800 114.150,385.800 166.400 M308.191 78.900 L 305.000 82.200 308.300 79.009 C 310.115 77.255,311.600 75.770,311.600 75.709 C 311.600 75.418,311.154 75.835,308.191 78.900 M92.600 80.000 C 93.683 81.100,94.660 82.000,94.770 82.000 C 94.880 82.000,94.083 81.100,93.000 80.000 C 91.917 78.900,90.940 78.000,90.830 78.000 C 90.720 78.000,91.517 78.900,92.600 80.000 M75.000 82.400 C 76.306 83.720,77.465 84.800,77.575 84.800 C 77.685 84.800,76.706 83.720,75.400 82.400 C 74.094 81.080,72.935 80.000,72.825 80.000 C 72.715 80.000,73.694 81.080,75.000 82.400 M323.591 83.500 L 320.200 87.000 323.700 83.609 C 325.625 81.744,327.200 80.169,327.200 80.109 C 327.200 79.818,326.741 80.249,323.591 83.500 M299.192 87.500 L 295.400 91.400 299.300 87.608 C 301.445 85.522,303.200 83.767,303.200 83.708 C 303.200 83.418,302.714 83.878,299.192 87.500 M87.200 94.200 C 89.060 96.070,90.672 97.600,90.782 97.600 C 90.892 97.600,89.460 96.070,87.600 94.200 C 85.740 92.330,84.128 90.800,84.018 90.800 C 83.908 90.800,85.340 92.330,87.200 94.200 M312.000 94.600 C 310.361 96.250,309.110 97.600,309.220 97.600 C 309.330 97.600,310.761 96.250,312.400 94.600 C 314.039 92.950,315.290 91.600,315.180 91.600 C 315.070 91.600,313.639 92.950,312.000 94.600 M286.800 99.400 C 285.161 101.050,283.910 102.400,284.020 102.400 C 284.130 102.400,285.561 101.050,287.200 99.400 C 288.839 97.750,290.090 96.400,289.980 96.400 C 289.870 96.400,288.439 97.750,286.800 99.400 M114.400 101.000 C 115.595 102.210,116.663 103.200,116.773 103.200 C 116.883 103.200,115.995 102.210,114.800 101.000 C 113.605 99.790,112.537 98.800,112.427 98.800 C 112.317 98.800,113.205 99.790,114.400 101.000 M93.200 99.710 C 93.200 99.771,94.595 101.166,96.300 102.810 L 99.400 105.800 96.410 102.700 C 93.633 99.821,93.200 99.417,93.200 99.710 M302.800 103.400 C 301.161 105.050,299.910 106.400,300.020 106.400 C 300.130 106.400,301.561 105.050,303.200 103.400 C 304.839 101.750,306.090 100.400,305.980 100.400 C 305.870 100.400,304.439 101.750,302.800 103.400 M108.400 114.600 C 110.260 116.470,111.872 118.000,111.982 118.000 C 112.092 118.000,110.660 116.470,108.800 114.600 C 106.940 112.730,105.328 111.200,105.218 111.200 C 105.108 111.200,106.540 112.730,108.400 114.600 M290.792 115.100 L 287.000 119.000 290.900 115.208 C 294.522 111.686,294.982 111.200,294.692 111.200 C 294.633 111.200,292.878 112.955,290.792 115.100 M265.094 120.266 C 263.166 122.167,261.645 123.778,261.715 123.848 C 261.785 123.918,263.448 122.361,265.412 120.387 C 267.376 118.414,268.897 116.803,268.792 116.806 C 268.686 116.809,267.022 118.366,265.094 120.266 M136.400 122.200 C 137.595 123.410,138.663 124.400,138.773 124.400 C 138.883 124.400,137.995 123.410,136.800 122.200 C 135.605 120.990,134.537 120.000,134.427 120.000 C 134.317 120.000,135.205 120.990,136.400 122.200 M117.000 122.800 C 117.859 123.680,118.652 124.400,118.762 124.400 C 118.872 124.400,118.259 123.680,117.400 122.800 C 116.541 121.920,115.748 121.200,115.638 121.200 C 115.528 121.200,116.141 121.920,117.000 122.800 M281.385 124.100 L 279.400 126.200 281.500 124.215 C 283.451 122.371,283.783 122.000,283.485 122.000 C 283.422 122.000,282.477 122.945,281.385 124.100 M252.788 132.300 L 250.200 135.000 252.900 132.412 C 254.385 130.988,255.600 129.773,255.600 129.712 C 255.600 129.417,255.193 129.792,252.788 132.300 M148.800 134.200 C 149.995 135.410,151.063 136.400,151.173 136.400 C 151.283 136.400,150.395 135.410,149.200 134.200 C 148.005 132.990,146.937 132.000,146.827 132.000 C 146.717 132.000,147.605 132.990,148.800 134.200 M130.600 136.000 C 132.350 137.760,133.871 139.200,133.981 139.200 C 134.091 139.200,132.750 137.760,131.000 136.000 C 129.250 134.240,127.729 132.800,127.619 132.800 C 127.509 132.800,128.850 134.240,130.600 136.000 M267.789 137.300 L 265.000 140.200 267.900 137.411 C 269.495 135.877,270.800 134.572,270.800 134.511 C 270.800 134.217,270.380 134.606,267.789 137.300 M242.992 141.700 L 239.400 145.400 243.100 141.808 C 246.536 138.472,246.982 138.000,246.692 138.000 C 246.632 138.000,244.967 139.665,242.992 141.700 M158.200 143.200 C 159.283 144.300,160.260 145.200,160.370 145.200 C 160.480 145.200,159.683 144.300,158.600 143.200 C 157.517 142.100,156.540 141.200,156.430 141.200 C 156.320 141.200,157.117 142.100,158.200 143.200 M139.000 144.000 C 139.859 144.880,140.652 145.600,140.762 145.600 C 140.872 145.600,140.259 144.880,139.400 144.000 C 138.541 143.120,137.748 142.400,137.638 142.400 C 137.528 142.400,138.141 143.120,139.000 144.000 M259.375 145.300 L 258.200 146.600 259.500 145.425 C 260.215 144.779,260.800 144.194,260.800 144.125 C 260.800 143.816,260.470 144.088,259.375 145.300 M232.391 151.900 L 229.000 155.400 232.500 152.009 C 234.425 150.144,236.000 148.569,236.000 148.509 C 236.000 148.218,235.541 148.649,232.391 151.900 M153.000 157.600 C 154.528 159.140,155.869 160.400,155.979 160.400 C 156.089 160.400,154.928 159.140,153.400 157.600 C 151.872 156.060,150.531 154.800,150.421 154.800 C 150.311 154.800,151.472 156.060,153.000 157.600 M246.191 158.100 L 243.000 161.400 246.300 158.209 C 248.115 156.455,249.600 154.970,249.600 154.909 C 249.600 154.618,249.154 155.035,246.191 158.100 M221.779 162.112 L 218.200 165.800 221.788 162.400 C 223.761 160.530,225.456 158.955,225.555 158.900 C 225.653 158.845,225.649 158.716,225.546 158.613 C 225.443 158.509,223.748 160.084,221.779 162.112 M179.800 164.000 C 180.659 164.880,181.452 165.600,181.562 165.600 C 181.672 165.600,181.059 164.880,180.200 164.000 C 179.341 163.120,178.548 162.400,178.438 162.400 C 178.328 162.400,178.941 163.120,179.800 164.000 M160.800 165.000 C 161.546 165.770,162.247 166.400,162.357 166.400 C 162.467 166.400,161.946 165.770,161.200 165.000 C 160.454 164.230,159.753 163.600,159.643 163.600 C 159.533 163.600,160.054 164.230,160.800 165.000 M215.414 167.646 C 213.313 169.226,213.116 169.487,214.727 168.562 C 215.862 167.910,217.647 166.345,217.162 166.427 C 217.073 166.442,216.286 166.991,215.414 167.646 M158.991 170.100 L 155.800 173.400 159.100 170.209 C 160.915 168.455,162.400 166.970,162.400 166.909 C 162.400 166.618,161.954 167.035,158.991 170.100 M237.600 166.910 C 237.600 166.971,238.995 168.366,240.700 170.010 L 243.800 173.000 240.810 169.900 C 238.033 167.021,237.600 166.617,237.600 166.910 M198.905 173.087 C 199.514 173.179,200.414 173.177,200.905 173.082 C 201.397 172.987,200.900 172.911,199.800 172.914 C 198.700 172.917,198.297 172.995,198.905 173.087 M167.792 181.105 C 165.368 183.467,158.708 189.900,152.992 195.400 C 147.277 200.900,139.999 207.920,136.821 211.000 C 133.642 214.080,130.830 216.780,130.571 217.000 C 130.313 217.220,127.690 219.740,124.743 222.600 C 115.906 231.176,99.232 247.228,95.635 250.624 C 93.784 252.371,90.706 255.330,88.795 257.200 C 86.883 259.070,83.261 262.580,80.745 265.000 C 63.968 281.138,54.372 290.386,50.200 294.436 C 47.560 296.999,43.981 300.448,42.246 302.099 C 38.641 305.531,38.629 305.320,42.580 307.987 C 45.297 309.820,46.231 310.389,49.700 312.326 C 53.198 314.279,61.345 317.107,67.400 318.470 L 71.400 319.371 171.200 319.585 L 271.000 319.800 272.858 320.668 C 275.909 322.093,277.658 323.784,286.228 333.600 C 287.093 334.590,287.892 335.490,288.006 335.600 C 288.119 335.710,289.559 337.330,291.206 339.199 C 292.852 341.069,294.478 342.869,294.818 343.199 C 295.158 343.530,297.839 346.500,300.776 349.800 C 303.712 353.100,307.497 357.330,309.187 359.200 C 310.876 361.070,313.305 363.770,314.584 365.200 C 315.863 366.630,317.112 367.980,317.358 368.200 C 317.605 368.420,318.975 369.942,320.403 371.582 C 321.832 373.222,323.540 375.128,324.200 375.817 C 325.852 377.540,331.291 383.589,331.887 384.365 C 332.687 385.406,331.919 378.742,330.164 369.400 C 329.942 368.217,329.448 365.108,328.800 360.800 C 328.618 359.590,328.258 357.340,328.000 355.800 C 327.742 354.260,327.367 351.965,327.166 350.700 C 326.806 348.437,326.410 346.038,325.580 341.100 C 325.349 339.725,325.063 337.610,324.945 336.400 C 324.826 335.190,324.565 334.029,324.365 333.820 C 323.854 333.288,323.910 329.741,324.455 328.028 C 326.355 322.064,329.328 319.175,335.400 317.390 C 343.718 314.945,352.853 310.866,355.758 308.300 C 356.194 307.915,356.695 307.600,356.871 307.600 C 357.047 307.600,357.508 307.340,357.895 307.021 C 358.283 306.703,359.031 306.104,359.558 305.690 L 360.517 304.938 358.732 303.169 C 357.750 302.196,353.187 297.800,348.591 293.400 C 343.996 289.000,337.168 282.422,333.418 278.782 C 329.668 275.142,324.458 270.102,321.840 267.582 C 319.222 265.062,315.513 261.470,313.597 259.600 C 311.681 257.730,307.178 253.410,303.590 250.000 C 300.001 246.590,295.413 242.180,293.394 240.200 C 291.374 238.220,286.333 233.360,282.191 229.400 C 278.049 225.440,273.642 221.210,272.397 220.000 C 271.152 218.790,265.738 213.570,260.367 208.401 C 254.995 203.231,248.082 196.571,245.005 193.601 C 241.928 190.630,237.257 186.130,234.626 183.600 C 231.994 181.070,229.355 178.505,228.760 177.900 C 227.354 176.469,226.942 176.518,224.862 178.369 C 221.462 181.395,214.168 184.822,207.894 186.339 C 205.490 186.921,194.438 186.942,192.246 186.370 C 184.371 184.312,178.598 181.472,174.225 177.504 C 172.931 176.330,172.368 176.645,167.792 181.105 M147.600 181.000 C 145.961 182.650,144.710 184.000,144.820 184.000 C 144.930 184.000,146.361 182.650,148.000 181.000 C 149.639 179.350,150.890 178.000,150.780 178.000 C 150.670 178.000,149.239 179.350,147.600 181.000 M251.600 180.600 C 253.017 182.030,254.267 183.200,254.377 183.200 C 254.487 183.200,253.417 182.030,252.000 180.600 C 250.583 179.170,249.333 178.000,249.223 178.000 C 249.113 178.000,250.183 179.170,251.600 180.600 M137.991 190.300 L 134.600 193.800 138.100 190.409 C 141.351 187.259,141.782 186.800,141.491 186.800 C 141.431 186.800,139.856 188.375,137.991 190.300 M258.400 186.910 C 258.400 186.971,259.795 188.366,261.500 190.010 L 264.600 193.000 261.610 189.900 C 258.833 187.021,258.400 186.617,258.400 186.910 M272.000 200.200 C 273.860 202.070,275.472 203.600,275.582 203.600 C 275.692 203.600,274.260 202.070,272.400 200.200 C 270.540 198.330,268.928 196.800,268.818 196.800 C 268.708 196.800,270.140 198.330,272.000 200.200 M126.791 201.100 L 123.400 204.600 126.900 201.209 C 130.151 198.059,130.582 197.600,130.291 197.600 C 130.231 197.600,128.656 199.175,126.791 201.100 M282.600 210.400 C 284.128 211.940,285.469 213.200,285.579 213.200 C 285.689 213.200,284.528 211.940,283.000 210.400 C 281.472 208.860,280.131 207.600,280.021 207.600 C 279.911 207.600,281.072 208.860,282.600 210.400 M115.787 211.700 L 113.400 214.200 115.900 211.813 C 118.222 209.595,118.583 209.200,118.287 209.200 C 118.226 209.200,117.101 210.325,115.787 211.700 M295.800 223.200 C 297.106 224.520,298.265 225.600,298.375 225.600 C 298.485 225.600,297.506 224.520,296.200 223.200 C 294.894 221.880,293.735 220.800,293.625 220.800 C 293.515 220.800,294.494 221.880,295.800 223.200 M102.981 224.100 L 101.400 225.800 103.100 224.219 C 104.681 222.748,104.984 222.400,104.681 222.400 C 104.616 222.400,103.851 223.165,102.981 224.100 M304.600 231.600 C 306.128 233.140,307.469 234.400,307.579 234.400 C 307.689 234.400,306.528 233.140,305.000 231.600 C 303.472 230.060,302.131 228.800,302.021 228.800 C 301.911 228.800,303.072 230.060,304.600 231.600 M93.791 232.900 L 90.600 236.200 93.900 233.009 C 95.715 231.255,97.200 229.770,97.200 229.709 C 97.200 229.418,96.754 229.835,93.791 232.900 M81.389 244.900 L 78.600 247.800 81.500 245.011 C 84.194 242.420,84.583 242.000,84.289 242.000 C 84.228 242.000,82.923 243.305,81.389 244.900 M318.000 244.600 C 319.417 246.030,320.667 247.200,320.777 247.200 C 320.887 247.200,319.817 246.030,318.400 244.600 C 316.983 243.170,315.733 242.000,315.623 242.000 C 315.513 242.000,316.583 243.170,318.000 244.600 M327.200 253.400 C 329.060 255.270,330.672 256.800,330.782 256.800 C 330.892 256.800,329.460 255.270,327.600 253.400 C 325.740 251.530,324.128 250.000,324.018 250.000 C 323.908 250.000,325.340 251.530,327.200 253.400 M72.000 253.800 C 70.361 255.450,69.110 256.800,69.220 256.800 C 69.330 256.800,70.761 255.450,72.400 253.800 C 74.039 252.150,75.290 250.800,75.180 250.800 C 75.070 250.800,73.639 252.150,72.000 253.800 M13.693 257.600 C 13.693 258.370,13.775 258.685,13.876 258.300 C 13.976 257.915,13.976 257.285,13.876 256.900 C 13.775 256.515,13.693 256.830,13.693 257.600 M14.101 261.000 C 14.105 261.880,14.187 262.193,14.283 261.695 C 14.379 261.198,14.375 260.478,14.275 260.095 C 14.175 259.713,14.096 260.120,14.101 261.000 M61.191 264.300 L 57.800 267.800 61.300 264.409 C 63.225 262.544,64.800 260.969,64.800 260.909 C 64.800 260.618,64.341 261.049,61.191 264.300 M336.000 261.710 C 336.000 261.771,337.395 263.166,339.100 264.810 L 342.200 267.800 339.210 264.700 C 336.433 261.821,336.000 261.417,336.000 261.710 M385.092 262.642 C 384.931 262.802,384.820 263.758,384.844 264.767 L 384.888 266.600 385.242 264.800 C 385.618 262.887,385.568 262.165,385.092 262.642 M384.267 267.067 C 384.120 267.213,384.016 267.888,384.036 268.567 L 384.072 269.800 384.459 268.456 C 384.845 267.113,384.769 266.564,384.267 267.067 M51.991 273.100 L 48.600 276.600 52.100 273.209 C 54.025 271.344,55.600 269.769,55.600 269.709 C 55.600 269.418,55.141 269.849,51.991 273.100 M348.200 273.600 C 350.171 275.580,351.873 277.200,351.983 277.200 C 352.093 277.200,350.571 275.580,348.600 273.600 C 346.629 271.620,344.927 270.000,344.817 270.000 C 344.707 270.000,346.229 271.620,348.200 273.600 M383.200 271.176 C 383.200 271.823,383.020 272.464,382.800 272.600 C 382.580 272.736,382.400 273.199,382.400 273.629 C 382.400 274.059,382.241 274.723,382.047 275.105 C 381.852 275.487,381.514 276.250,381.296 276.800 C 380.602 278.544,378.258 283.314,376.895 285.756 C 376.172 287.053,375.658 288.191,375.753 288.286 C 375.966 288.499,378.260 284.587,379.673 281.600 C 382.630 275.350,384.445 270.000,383.608 270.000 C 383.383 270.000,383.200 270.529,383.200 271.176 M38.987 285.700 L 36.600 288.200 39.100 285.813 C 41.422 283.595,41.783 283.200,41.487 283.200 C 41.426 283.200,40.301 284.325,38.987 285.700 M364.974 289.684 L 370.600 295.168 372.296 293.313 C 373.229 292.293,373.905 291.372,373.798 291.265 C 373.591 291.058,371.601 293.224,371.600 293.657 C 371.598 294.776,370.073 294.010,367.522 291.609 C 361.223 285.682,359.642 284.487,364.974 289.684 M374.469 289.639 C 373.710 290.854,374.166 291.016,374.955 289.812 C 375.320 289.256,375.478 288.800,375.305 288.800 C 375.133 288.800,374.757 289.178,374.469 289.639 " stroke="none" fill="#fa9904" fill-rule="evenodd"></path><path id="path2" d="M72.200 14.209 C 61.056 15.656,51.704 19.167,42.631 25.310 C 38.525 28.090,38.462 27.543,43.442 32.351 C 51.733 40.354,67.761 55.799,72.759 60.600 C 82.162 69.634,98.550 85.468,103.394 90.200 C 104.971 91.740,107.777 94.428,109.631 96.173 C 111.484 97.919,117.583 103.769,123.185 109.173 C 128.786 114.578,135.430 120.980,137.948 123.400 C 143.638 128.869,145.406 130.575,151.635 136.610 C 186.418 170.309,185.900 169.868,193.200 172.060 C 195.528 172.759,204.098 172.742,206.454 172.034 C 213.687 169.860,214.121 169.520,232.818 151.410 C 236.459 147.885,243.012 141.580,247.382 137.400 C 251.752 133.220,256.885 128.270,258.788 126.400 C 260.692 124.530,265.100 120.300,268.584 117.000 C 272.069 113.700,276.664 109.290,278.796 107.200 C 280.928 105.110,284.816 101.343,287.436 98.828 C 290.056 96.313,295.091 91.453,298.624 88.028 C 302.157 84.603,308.984 78.020,313.794 73.400 C 318.604 68.780,323.558 64.010,324.803 62.800 C 326.048 61.590,330.452 57.360,334.589 53.400 C 338.726 49.440,343.931 44.421,346.155 42.246 C 348.380 40.071,352.585 36.033,355.500 33.272 C 361.436 27.649,361.192 28.008,359.700 27.111 C 359.095 26.747,358.095 26.033,357.477 25.525 C 351.440 20.554,338.112 15.537,327.400 14.204 C 320.712 13.371,78.615 13.377,72.200 14.209 M75.240 26.854 C 79.602 28.309,81.381 33.790,78.653 37.367 C 75.254 41.823,68.399 40.427,66.789 34.951 C 65.369 30.124,70.451 25.256,75.240 26.854 M195.240 26.854 C 201.049 28.796,201.690 36.701,196.259 39.410 C 195.237 39.920,188.519 40.000,146.639 39.999 L 98.200 39.997 96.800 39.144 C 91.890 36.152,92.196 29.484,97.349 27.191 C 99.375 26.290,192.591 25.969,195.240 26.854 M27.672 39.403 C 27.192 39.955,26.800 40.505,26.800 40.626 C 26.800 40.748,26.275 41.511,25.634 42.323 C 19.955 49.514,15.345 62.327,14.023 74.600 C 13.432 80.092,13.428 253.257,14.019 258.723 C 15.279 270.361,19.213 281.884,24.447 289.262 C 24.861 289.846,25.200 290.521,25.200 290.762 C 25.200 291.003,25.335 291.208,25.500 291.219 C 25.665 291.229,26.430 292.127,27.200 293.214 C 28.939 295.671,28.562 295.741,32.100 292.300 C 33.740 290.705,37.224 287.350,39.841 284.844 C 42.459 282.338,47.300 277.657,50.600 274.442 C 55.670 269.503,70.175 255.533,76.810 249.200 C 77.847 248.210,82.724 243.512,87.648 238.759 C 92.572 234.006,98.384 228.426,100.564 226.359 C 102.744 224.292,105.913 221.250,107.606 219.600 C 109.298 217.950,113.004 214.364,115.842 211.631 C 125.412 202.412,130.581 197.425,136.605 191.600 C 139.903 188.410,147.070 181.486,152.531 176.214 L 162.459 166.628 159.128 163.414 C 157.296 161.646,152.359 156.870,148.159 152.800 C 143.958 148.730,137.479 142.497,133.760 138.949 C 130.042 135.401,125.091 130.631,122.758 128.349 C 120.426 126.067,116.916 122.687,114.958 120.837 C 113.001 118.987,107.260 113.472,102.200 108.580 C 97.140 103.688,92.370 99.107,91.600 98.400 C 90.830 97.694,87.316 94.299,83.790 90.858 C 78.477 85.670,65.223 72.885,57.192 65.200 C 53.264 61.441,38.491 47.213,34.042 42.905 C 28.948 37.972,28.927 37.960,27.672 39.403 M367.943 41.600 C 366.325 43.140,364.881 44.400,364.733 44.400 C 364.586 44.400,363.686 45.145,362.733 46.055 C 359.215 49.415,343.191 64.833,334.759 72.972 C 331.811 75.816,327.145 80.316,324.388 82.972 C 321.632 85.627,316.675 90.410,313.373 93.600 C 296.803 109.610,287.427 118.642,283.844 122.044 C 281.668 124.110,278.158 127.486,276.044 129.546 C 273.930 131.607,269.158 136.197,265.440 139.746 C 261.721 143.296,255.331 149.444,251.240 153.408 C 247.148 157.373,242.391 161.969,240.670 163.621 L 237.540 166.626 246.470 175.263 C 251.381 180.014,256.210 184.664,257.200 185.597 C 258.190 186.530,261.251 189.477,264.003 192.147 C 266.754 194.816,273.579 201.410,279.169 206.800 C 284.758 212.190,290.354 217.590,291.604 218.800 C 292.854 220.010,297.447 224.420,301.810 228.600 C 306.174 232.780,311.123 237.550,312.808 239.200 C 314.493 240.850,317.836 244.071,320.236 246.359 C 326.696 252.515,343.789 268.990,350.200 275.239 C 358.968 283.785,363.606 288.170,364.269 288.542 C 364.605 288.730,366.127 290.117,367.653 291.625 C 370.115 294.058,371.600 294.807,371.600 293.617 C 371.600 293.453,372.140 292.754,372.800 292.063 C 373.460 291.372,374.000 290.660,374.000 290.479 C 374.000 290.299,374.315 289.802,374.700 289.375 C 375.686 288.284,380.024 280.013,381.297 276.800 C 381.515 276.250,381.852 275.487,382.047 275.105 C 382.241 274.723,382.400 274.059,382.400 273.629 C 382.400 273.199,382.580 272.736,382.800 272.600 C 383.020 272.464,383.200 271.823,383.200 271.176 C 383.200 270.529,383.380 270.000,383.600 270.000 C 383.820 270.000,384.000 269.381,384.000 268.624 C 384.000 267.867,384.180 267.136,384.400 267.000 C 384.620 266.864,384.800 265.899,384.800 264.856 C 384.800 263.813,385.025 262.735,385.300 262.460 C 385.697 262.063,385.800 242.315,385.800 166.400 C 385.800 90.485,385.697 70.737,385.300 70.340 C 385.025 70.065,384.800 68.987,384.800 67.944 C 384.800 66.901,384.620 65.936,384.400 65.800 C 384.180 65.664,384.000 64.944,384.000 64.200 C 384.000 63.456,383.820 62.736,383.600 62.600 C 383.380 62.464,383.200 61.924,383.200 61.400 C 383.200 60.876,383.020 60.336,382.800 60.200 C 382.580 60.064,382.400 59.524,382.400 59.000 C 382.400 58.476,382.220 57.936,382.000 57.800 C 381.780 57.664,381.600 57.113,381.600 56.576 C 381.600 56.039,381.420 55.600,381.200 55.600 C 380.980 55.600,380.800 55.325,380.800 54.989 C 380.800 54.210,375.663 44.245,375.170 44.067 C 374.966 43.993,374.800 43.712,374.800 43.442 C 374.800 43.172,374.480 42.602,374.089 42.175 C 373.698 41.749,372.966 40.815,372.462 40.100 C 371.259 38.393,371.343 38.365,367.943 41.600 " stroke="none" fill="#fbe01a" fill-rule="evenodd"></path><path id="path3" d="M70.493 27.267 C 64.044 30.395,66.176 40.000,73.319 40.000 C 79.335 40.000,82.266 32.645,77.892 28.525 C 75.566 26.333,73.236 25.937,70.493 27.267 M97.349 27.191 C 92.196 29.484,91.890 36.152,96.800 39.144 L 98.200 39.997 146.639 39.999 C 188.519 40.000,195.237 39.920,196.259 39.410 C 201.690 36.701,201.049 28.796,195.240 26.854 C 192.591 25.969,99.375 26.290,97.349 27.191 " stroke="none" fill="#f4f4f1" fill-rule="evenodd"></path><path id="path4" d="M70.800 13.676 C 69.590 13.880,68.060 14.213,67.400 14.416 C 66.101 14.817,66.551 14.780,72.600 13.990 C 76.329 13.503,323.671 13.503,327.400 13.990 C 333.583 14.797,333.838 14.819,332.800 14.454 C 329.345 13.239,325.071 13.200,199.493 13.253 C 123.963 13.284,72.114 13.454,70.800 13.676 M61.200 15.794 C 53.416 18.164,43.048 23.537,39.009 27.293 C 38.151 28.091,38.941 28.936,54.452 43.800 C 62.257 51.280,79.525 67.909,85.200 73.410 C 88.170 76.289,92.760 80.717,95.400 83.249 C 98.040 85.782,102.720 90.289,105.800 93.267 C 108.880 96.244,113.542 100.732,116.160 103.240 C 124.518 111.248,140.191 126.347,150.579 136.400 C 154.330 140.030,159.463 144.980,161.986 147.400 C 164.508 149.820,169.098 154.256,172.186 157.258 C 179.596 164.462,182.978 167.575,184.565 168.654 C 194.108 175.138,205.892 175.138,215.435 168.654 C 217.035 167.567,220.418 164.449,228.000 157.075 C 231.190 153.972,235.960 149.356,238.601 146.817 C 241.241 144.278,246.287 139.410,249.815 136.000 C 259.547 126.592,275.792 110.951,283.840 103.240 C 286.458 100.732,291.120 96.245,294.200 93.270 C 297.280 90.295,301.960 85.782,304.600 83.241 C 307.240 80.699,312.010 76.090,315.200 72.998 C 318.390 69.906,325.492 63.062,330.983 57.788 C 347.504 41.921,350.708 38.832,356.364 33.314 L 361.782 28.029 360.921 27.227 C 356.165 22.796,338.906 14.647,334.688 14.841 C 334.052 14.870,334.197 14.995,335.200 15.280 C 341.440 17.057,347.424 19.284,350.155 20.844 C 350.879 21.258,351.922 21.849,355.032 23.611 C 357.137 24.804,360.800 27.638,360.800 28.074 C 360.800 28.282,359.855 29.364,358.700 30.478 C 357.545 31.592,354.620 34.404,352.200 36.728 C 343.571 45.014,337.322 51.035,332.000 56.192 C 329.030 59.070,321.830 66.009,316.000 71.613 C 305.366 81.833,297.057 89.841,293.603 93.200 C 292.584 94.190,289.962 96.713,287.776 98.807 C 282.297 104.052,262.999 122.630,256.200 129.203 C 253.120 132.181,248.173 136.953,245.207 139.809 C 242.241 142.664,237.471 147.271,234.607 150.046 C 217.339 166.779,216.297 167.722,213.128 169.508 C 206.230 173.396,198.540 174.029,190.898 171.339 C 185.424 169.412,184.695 168.806,165.796 150.454 C 162.933 147.674,158.431 143.330,155.791 140.800 C 153.151 138.270,148.202 133.500,144.793 130.200 C 138.340 123.952,119.783 106.080,113.200 99.773 C 111.110 97.770,106.162 92.997,102.204 89.166 C 98.247 85.335,93.218 80.490,91.030 78.400 C 88.842 76.310,84.071 71.720,80.426 68.200 C 76.782 64.680,71.372 59.460,68.405 56.600 C 65.438 53.740,60.578 49.055,57.605 46.188 C 54.632 43.321,50.055 38.911,47.433 36.388 C 37.927 27.238,38.670 28.194,40.111 26.972 C 45.303 22.569,54.502 18.213,64.800 15.280 C 65.919 14.962,65.999 14.882,65.200 14.881 C 64.650 14.881,62.850 15.292,61.200 15.794 M28.000 37.925 C 28.000 38.103,27.675 38.598,27.279 39.025 C 22.605 44.049,14.667 60.895,14.849 65.400 C 14.868 65.865,15.050 65.614,15.283 64.800 C 17.809 55.998,20.211 50.146,22.861 46.338 C 23.267 45.754,23.601 45.124,23.602 44.938 C 23.606 44.284,28.447 38.200,28.964 38.200 C 29.252 38.200,34.054 42.610,39.634 48.000 C 45.215 53.390,51.746 59.690,54.148 62.000 C 56.550 64.310,59.540 67.190,60.793 68.400 C 63.911 71.410,80.054 86.944,82.564 89.351 C 85.745 92.400,93.228 99.610,99.800 105.958 C 103.100 109.145,108.050 113.924,110.800 116.577 C 113.551 119.229,120.211 125.654,125.600 130.853 C 130.990 136.052,136.030 140.891,136.800 141.605 C 137.570 142.320,142.340 146.913,147.400 151.812 C 152.460 156.712,157.905 161.939,159.500 163.427 C 163.118 166.805,163.207 166.308,158.100 171.208 C 155.735 173.477,151.365 177.688,148.388 180.566 C 139.887 188.787,124.383 203.720,122.400 205.598 C 121.410 206.535,116.375 211.374,111.211 216.351 C 106.048 221.328,99.391 227.740,96.418 230.600 C 93.446 233.460,88.312 238.410,85.011 241.600 C 71.839 254.325,69.001 257.064,67.397 258.600 C 63.770 262.072,56.533 269.032,47.191 278.034 C 31.901 292.768,29.555 294.990,29.119 295.148 C 27.879 295.599,20.631 284.281,18.806 279.045 C 18.581 278.399,18.281 277.986,18.140 278.127 C 17.822 278.444,21.193 285.480,22.811 287.878 C 23.465 288.847,24.000 289.777,24.000 289.945 C 24.000 290.112,24.320 290.598,24.711 291.025 C 25.102 291.451,25.862 292.430,26.400 293.200 C 28.055 295.569,28.678 296.109,29.327 295.739 C 29.851 295.440,38.660 286.989,55.947 270.200 C 58.892 267.340,61.515 264.820,61.777 264.600 C 62.038 264.380,64.761 261.765,67.826 258.790 C 70.892 255.814,78.080 248.885,83.800 243.392 C 95.706 231.958,102.758 225.161,105.997 222.000 C 107.237 220.790,109.950 218.179,112.026 216.198 C 116.328 212.091,134.727 194.377,142.796 186.572 C 150.522 179.099,158.642 171.296,161.200 168.887 L 163.400 166.815 157.800 161.300 C 152.443 156.024,134.155 138.368,126.625 131.202 C 124.658 129.331,122.035 126.810,120.796 125.600 C 117.076 121.969,108.530 113.721,102.997 108.422 C 100.139 105.683,95.280 100.998,92.200 98.010 C 80.145 86.312,66.063 72.749,65.178 71.981 C 64.666 71.537,59.651 66.725,54.034 61.287 C 44.370 51.932,40.752 48.448,32.809 40.845 C 29.837 38.000,28.000 36.885,28.000 37.925 M367.400 40.655 C 365.640 42.333,362.400 45.439,360.200 47.558 C 358.000 49.676,351.340 56.086,345.400 61.802 C 339.460 67.518,332.350 74.368,329.600 77.025 C 326.850 79.681,321.900 84.452,318.600 87.627 C 315.300 90.802,310.080 95.844,307.000 98.832 C 303.920 101.820,299.060 106.500,296.200 109.232 C 291.044 114.157,282.742 122.166,278.404 126.400 C 277.164 127.610,274.450 130.221,272.374 132.203 C 262.652 141.484,246.877 156.701,242.000 161.502 L 236.600 166.818 238.400 168.475 C 240.268 170.194,246.566 176.250,256.200 185.592 C 268.239 197.266,282.454 210.953,283.306 211.691 C 283.797 212.117,288.970 217.083,294.800 222.726 C 300.630 228.369,307.280 234.789,309.577 236.993 C 314.068 241.301,313.983 241.219,322.025 249.001 C 327.033 253.847,332.050 258.685,344.424 270.600 C 347.166 273.240,353.969 279.810,359.542 285.200 C 365.115 290.590,369.949 295.156,370.284 295.346 C 372.065 296.358,380.419 282.851,383.116 274.600 C 384.928 269.057,385.262 267.697,386.374 261.376 C 386.969 257.989,386.971 75.357,386.375 71.646 C 385.643 67.083,385.135 64.628,384.751 63.800 C 384.327 62.885,384.469 63.868,385.503 69.000 C 386.083 71.875,386.163 81.510,386.293 163.800 C 386.456 267.020,386.590 262.376,383.164 272.937 C 380.725 280.459,375.831 289.530,371.856 293.898 L 370.662 295.210 367.230 291.905 C 365.343 290.087,359.306 284.280,353.815 279.000 C 348.324 273.720,341.501 267.150,338.653 264.400 C 335.805 261.650,332.903 258.860,332.204 258.200 C 331.506 257.540,328.609 254.749,325.767 251.998 C 314.892 241.471,307.191 234.039,302.764 229.800 C 300.237 227.380,293.767 221.147,288.385 215.949 C 283.003 210.751,277.790 205.731,276.800 204.794 C 274.838 202.938,258.751 187.441,249.800 178.784 C 246.720 175.806,242.715 171.950,240.900 170.215 C 236.950 166.440,236.986 166.727,240.100 163.838 C 241.475 162.563,244.770 159.422,247.422 156.859 C 255.232 149.312,270.345 134.758,272.556 132.655 C 273.680 131.586,276.850 128.530,279.600 125.864 C 282.350 123.198,286.941 118.763,289.802 116.009 C 292.664 113.254,297.704 108.390,301.003 105.200 C 318.370 88.409,326.809 80.286,327.594 79.605 C 328.075 79.188,333.086 74.381,338.729 68.923 C 344.372 63.465,351.151 56.919,353.794 54.375 C 356.438 51.831,361.180 47.241,364.334 44.175 C 369.713 38.945,371.108 37.732,371.367 38.063 C 373.558 40.858,375.600 43.633,375.600 43.816 C 375.600 43.948,376.116 44.808,376.746 45.728 C 378.555 48.366,381.828 55.461,383.053 59.400 C 383.669 61.380,384.231 62.718,384.302 62.374 C 384.846 59.719,376.748 43.346,372.788 39.095 C 372.354 38.630,372.000 38.103,372.000 37.925 C 372.000 36.911,370.215 37.971,367.400 40.655 M14.237 67.800 C 14.091 68.680,13.798 70.375,13.586 71.567 C 13.004 74.832,13.067 258.330,13.651 262.093 C 14.163 265.389,14.950 268.121,14.604 265.400 C 14.492 264.520,14.211 262.180,13.980 260.200 C 13.332 254.652,13.684 72.109,14.348 69.270 C 14.623 68.099,14.769 66.929,14.675 66.670 C 14.580 66.412,14.383 66.920,14.237 67.800 M168.679 179.550 C 166.655 181.503,164.190 183.861,163.200 184.791 C 162.210 185.721,159.058 188.759,156.195 191.541 C 153.332 194.323,148.650 198.850,145.791 201.600 C 142.932 204.350,137.804 209.300,134.394 212.600 C 130.985 215.900,123.703 222.920,118.213 228.200 C 112.723 233.480,106.173 239.780,103.657 242.200 C 101.142 244.620,98.239 247.410,97.207 248.400 C 91.781 253.606,76.225 268.580,70.617 273.997 C 67.088 277.406,61.860 282.455,59.000 285.217 C 56.140 287.979,51.370 292.593,48.400 295.470 C 45.430 298.348,41.969 301.643,40.708 302.793 C 37.871 305.381,37.921 305.519,42.883 308.856 C 50.212 313.784,59.254 317.431,68.400 319.148 C 74.724 320.335,80.210 320.400,174.565 320.400 L 270.776 320.400 272.888 321.367 C 275.512 322.569,277.450 324.389,283.359 331.202 C 284.217 332.191,285.747 333.900,286.760 335.000 C 287.772 336.100,290.130 338.707,292.000 340.794 C 297.620 347.065,298.183 347.693,298.608 348.156 C 298.832 348.400,301.349 351.210,304.202 354.400 C 307.054 357.590,310.021 360.900,310.794 361.756 C 311.567 362.611,312.380 363.511,312.600 363.756 C 312.821 364.000,315.337 366.810,318.193 370.000 C 321.048 373.190,323.568 375.999,323.792 376.242 C 324.842 377.381,330.011 383.162,331.177 384.500 C 332.554 386.082,333.808 386.524,333.448 385.300 C 333.334 384.915,332.959 382.800,332.614 380.600 C 332.269 378.400,331.812 375.610,331.597 374.400 C 331.383 373.190,330.749 369.320,330.189 365.800 C 328.054 352.381,327.533 349.184,326.307 342.000 C 323.484 325.451,325.513 320.731,336.800 317.593 C 344.630 315.416,352.992 311.365,358.899 306.887 C 361.476 304.933,361.494 304.578,359.109 302.601 C 358.389 302.004,355.190 298.977,352.000 295.875 C 348.810 292.772,344.038 288.156,341.396 285.617 C 338.754 283.078,333.894 278.389,330.596 275.198 C 327.298 272.008,320.296 265.258,315.035 260.198 C 309.774 255.139,304.446 250.010,303.195 248.800 C 301.944 247.590,298.860 244.620,296.342 242.200 C 286.457 232.700,271.537 218.339,266.311 213.293 C 263.288 210.374,258.247 205.514,255.109 202.493 C 251.970 199.472,246.987 194.660,244.035 191.800 C 241.083 188.940,238.095 186.060,237.395 185.400 C 236.696 184.740,234.218 182.355,231.890 180.100 C 226.823 175.194,227.434 175.285,223.481 178.847 C 221.118 180.976,213.513 184.413,208.400 185.662 C 199.521 187.832,182.106 184.358,177.755 179.550 C 177.382 179.138,176.912 178.800,176.711 178.800 C 176.511 178.800,175.684 178.172,174.873 177.403 C 172.876 175.510,172.858 175.517,168.679 179.550 M174.225 177.504 C 178.598 181.472,184.371 184.312,192.246 186.370 C 194.438 186.942,205.490 186.921,207.894 186.339 C 214.168 184.822,221.462 181.395,224.862 178.369 C 226.942 176.518,227.354 176.469,228.760 177.900 C 229.355 178.505,231.994 181.070,234.626 183.600 C 237.257 186.130,241.928 190.630,245.005 193.601 C 248.082 196.571,254.995 203.231,260.367 208.401 C 265.738 213.570,271.152 218.790,272.397 220.000 C 273.642 221.210,278.049 225.440,282.191 229.400 C 286.333 233.360,291.374 238.220,293.394 240.200 C 295.413 242.180,300.001 246.590,303.590 250.000 C 307.178 253.410,311.681 257.730,313.597 259.600 C 315.513 261.470,319.222 265.062,321.840 267.582 C 324.458 270.102,329.668 275.142,333.418 278.782 C 337.168 282.422,343.996 289.000,348.591 293.400 C 353.187 297.800,357.750 302.196,358.732 303.169 L 360.517 304.938 359.558 305.690 C 359.031 306.104,358.283 306.703,357.895 307.021 C 357.508 307.340,357.047 307.600,356.871 307.600 C 356.695 307.600,356.194 307.915,355.758 308.300 C 352.853 310.866,343.718 314.945,335.400 317.390 C 329.328 319.175,326.355 322.064,324.455 328.028 C 323.910 329.741,323.854 333.288,324.365 333.820 C 324.565 334.029,324.826 335.190,324.945 336.400 C 325.063 337.610,325.349 339.725,325.580 341.100 C 326.410 346.038,326.806 348.437,327.166 350.700 C 327.367 351.965,327.742 354.260,328.000 355.800 C 328.258 357.340,328.618 359.590,328.800 360.800 C 329.448 365.108,329.942 368.217,330.164 369.400 C 331.919 378.742,332.687 385.406,331.887 384.365 C 331.291 383.589,325.852 377.540,324.200 375.817 C 323.540 375.128,321.832 373.222,320.403 371.582 C 318.975 369.942,317.605 368.420,317.358 368.200 C 317.112 367.980,315.863 366.630,314.584 365.200 C 313.305 363.770,310.876 361.070,309.187 359.200 C 307.497 357.330,303.712 353.100,300.776 349.800 C 297.839 346.500,295.158 343.530,294.818 343.199 C 294.478 342.869,292.852 341.069,291.206 339.199 C 289.559 337.330,288.119 335.710,288.006 335.600 C 287.892 335.490,287.093 334.590,286.228 333.600 C 277.658 323.784,275.909 322.093,272.858 320.668 L 271.000 319.800 171.200 319.585 L 71.400 319.371 67.400 318.470 C 61.345 317.107,53.198 314.279,49.700 312.326 C 46.231 310.389,45.297 309.820,42.580 307.987 C 38.629 305.320,38.641 305.531,42.246 302.099 C 43.981 300.448,47.560 296.999,50.200 294.436 C 54.372 290.386,63.968 281.138,80.745 265.000 C 83.261 262.580,86.883 259.070,88.795 257.200 C 90.706 255.330,93.784 252.371,95.635 250.624 C 99.232 247.228,115.906 231.176,124.743 222.600 C 127.690 219.740,130.313 217.220,130.571 217.000 C 130.830 216.780,133.642 214.080,136.821 211.000 C 139.999 207.920,147.277 200.900,152.992 195.400 C 158.708 189.900,165.368 183.467,167.792 181.105 C 172.368 176.645,172.931 176.330,174.225 177.504 M14.819 267.680 C 14.780 269.070,17.204 276.974,17.849 277.556 C 17.997 277.690,18.007 277.440,17.871 277.000 C 17.735 276.560,16.998 274.130,16.231 271.600 C 15.465 269.070,14.830 267.306,14.819 267.680 " stroke="none" fill="#9a5704" fill-rule="evenodd"></path></g></svg>